<svg width="98" height="101" viewBox="0 0 98 101" fill="none" xmlns="http://www.w3.org/2000/svg">
<g clip-path="url(#clip0)">
<g clip-path="url(#clip1)">
<path fill-rule="evenodd" clip-rule="evenodd" d="M55.4828 12.0377H49.9656H47.0691H38.9311H36.1725H27.8966H25.138H16.862H14.1034H5.8275H3.06891H-5.20687H-7.96547H-13.6206C-16.6552 12.0377 -19 14.3845 -19 17.4215V28.603C-19 30.5357 -18.1723 32.4682 -16.7931 33.7107C-16.1941 34.1904 -15.5427 34.5917 -14.862 34.8924V42.4075V86.5818C-14.862 87.4101 -14.3103 87.9623 -13.4827 87.9623H-6.58609H12.7242H55.4828C56.3105 87.9623 56.8622 87.4101 56.8622 86.5818V42.4078V42.4077V34.896C59.2812 33.7327 61 31.1595 61 28.327V17.4215C61 14.3845 58.6552 12.0377 55.4828 12.0377ZM38.9311 14.7987H47.0691V28.6032C47.0691 28.8804 47.0911 29.1574 47.1292 29.4326C46.7622 31.3598 45.1288 32.7446 43.0691 32.7446C40.7242 32.7446 38.9311 30.95 38.9311 28.6032V14.7987ZM27.8966 14.7987H36.1725V28.6032C36.1725 30.95 34.3794 32.7446 32.0345 32.7446C29.6897 32.7446 27.8966 30.95 27.8966 28.6032V14.7987ZM16.862 14.7987H25.138V28.6032C25.138 30.95 23.3448 32.7446 21 32.7446C18.6552 32.7446 16.862 30.95 16.862 28.6032V14.7987ZM5.82766 14.7987H14.1036V28.6032C14.1036 30.95 12.3105 32.7446 9.96562 32.7446C7.62078 32.7446 5.82766 30.95 5.82766 28.6032V14.7987ZM-5.20687 14.7987H3.06906V28.6032C3.06906 30.95 1.27594 32.7446 -1.06891 32.7446C-3.41375 32.7446 -5.20687 30.95 -5.20687 28.6032V28.327V14.7987ZM-16.2414 28.603V17.4215C-16.2414 15.9031 -15.138 14.7987 -13.6208 14.7987H-7.96562V28.327C-7.96562 30.3915 -9.41187 32.2144 -11.2903 32.6692C-11.4947 32.7073 -11.705 32.7314 -11.9205 32.74C-12.963 32.7033 -14.0917 32.411 -14.8622 31.6401C-15.6897 30.9498 -16.2414 29.7074 -16.2414 28.603ZM-11.4137 35.5053C-10.8678 35.4397 -10.3392 35.3045 -9.83609 35.1098C-8.54109 34.6521 -7.40281 33.8236 -6.60312 32.7657C-5.355 34.4388 -3.35734 35.5053 -1.0689 35.5053C1.20938 35.5053 3.19906 34.4478 4.44828 32.7874C5.6975 34.4478 7.68719 35.5053 9.96547 35.5053C12.2438 35.5053 14.2334 34.4478 15.4827 32.7874C16.7319 34.4478 18.7216 35.5053 20.9998 35.5053C23.2781 35.5053 25.2678 34.4478 26.517 32.7874C27.7663 34.4478 29.7559 35.5053 32.0342 35.5053C34.3125 35.5053 36.3022 34.4478 37.5514 32.7874C38.8006 34.4478 40.7903 35.5053 43.0686 35.5053C45.3403 35.5053 47.3248 34.4538 48.5747 32.8016C48.8311 33.1324 49.1116 33.4389 49.4133 33.7107C49.6342 33.8877 49.8631 34.0527 50.097 34.2072C51.0731 34.9002 52.2397 35.3548 53.4728 35.4721C53.483 35.4732 53.4931 35.474 53.5033 35.4749C53.5877 35.4826 53.6719 35.4899 53.7569 35.4945C53.8722 35.501 53.9875 35.5053 54.1028 35.5053V41.027H-12.1034V35.5053C-11.8277 35.5053 -11.6897 35.5053 -11.4137 35.5053ZM-5.20687 85.2013V49.3097H11.3448V68.636H8.58625C7.75859 68.636 7.20687 69.1881 7.20687 70.0165C7.20687 70.8448 7.75859 71.397 8.58625 71.397H11.3448V85.2014H-5.20687V85.2013ZM54.1034 85.2013H14.1034V47.9294C14.1034 47.1011 13.5517 46.5489 12.7241 46.5489H-6.58625C-7.41391 46.5489 -7.96562 47.1011 -7.96562 47.9294V85.2015H-12.1034V43.788H54.1034V85.2013ZM58.2414 28.327C58.2414 30.3667 56.9909 31.9885 55.3053 32.5596C55.2266 32.5668 55.1478 32.5802 55.0689 32.6065C54.8658 32.7081 54.5881 32.7347 54.3456 32.7417C53.2869 32.7141 52.1298 32.4257 51.3448 31.6401C50.5172 30.9498 49.9655 29.7074 49.9655 28.603V14.7987H55.6206C57.1378 14.7987 58.2412 16.0411 58.2412 17.4215V28.327H58.2414Z" fill="#ECB84C"/>
<path fill-rule="evenodd" clip-rule="evenodd" d="M19.6206 79.6796H26.5172H43.0689H49.9655C50.7931 79.6796 51.3448 79.1274 51.3448 78.2991V47.9294C51.3448 47.1011 50.7931 46.5489 49.9655 46.5489H41.6895H27.8964H19.6205C18.7928 46.5489 18.2411 47.1011 18.2411 47.9294V78.2992C18.2414 79.1274 18.7931 79.6796 19.6206 79.6796ZM38.9311 72.7773C39.7587 72.7773 40.3105 72.2252 40.3105 71.3968C40.3105 70.5685 39.7587 70.0163 38.9311 70.0163H30.6552C29.8275 70.0163 29.2758 70.5685 29.2758 71.3968C29.2758 72.2252 29.8275 72.7773 30.6552 72.7773H33.4137V76.9187H27.8575C27.5855 72.0025 25.8703 67.8972 23.3447 65.8751C26.5992 63.1391 28.9925 56.959 29.2514 49.3098H40.3333C40.5786 56.959 42.8566 63.1391 46.2412 65.8751C43.7158 67.8972 42.0005 72.0025 41.7284 76.9187H36.1722V72.7773H38.9311ZM48.5862 76.9187H44.4483C44.862 72.2252 46.6552 68.774 48.5862 67.6697V76.9187ZM48.5862 49.3098V64.0805C45.8277 62.5621 43.3448 57.0402 43.0691 49.3098H48.5862ZM21 49.3098H26.5172C26.2412 57.0403 23.6206 62.5621 21 64.0805V49.3098ZM21 67.6697C23.0689 68.774 24.862 72.2252 25.138 76.9187H21V67.6697Z" fill="#ECB84C"/>
<path fill-rule="evenodd" clip-rule="evenodd" d="M8.58626 61.7337V53.451C8.58626 52.6226 8.03454 52.0705 7.20689 52.0705H-1.06905C-1.89671 52.0705 -2.44843 52.6226 -2.44843 53.451V61.7337C-2.44843 62.5621 -1.89671 63.1142 -1.06905 63.1142H7.20689C8.03454 63.1142 8.58626 62.5621 8.58626 61.7337ZM5.82767 60.3534H0.310481V54.8316H5.82767V60.3534Z" fill="#ECB84C"/>
</g>
</g>
<defs>
<clipPath id="clip0">
<rect width="98" height="101" fill="white"/>
</clipPath>
<clipPath id="clip1">
<rect width="110" height="73" fill="white" transform="translate(-19 12)"/>
</clipPath>
</defs>
</svg>
